G04 (created by PCBNEW (2013-07-07 BZR 4022)-stable) date 7/10/2015 1:05:57 PM*
%MOIN*%
G04 Gerber Fmt 3.4, Leading zero omitted, Abs format*
%FSLAX34Y34*%
G01*
G70*
G90*
G04 APERTURE LIST*
%ADD10C,0.00590551*%
%ADD11C,0.011811*%
%ADD12C,0.00393701*%
%ADD13R,0.06X0.06*%
%ADD14C,0.06*%
%ADD15R,0.055X0.055*%
%ADD16C,0.055*%
G04 APERTURE END LIST*
G54D10*
G54D11*
X83598Y-66801D02*
X83598Y-66379D01*
X83626Y-66295D01*
X83682Y-66239D01*
X83767Y-66210D01*
X83823Y-66210D01*
X83317Y-66435D02*
X82867Y-66435D01*
X82614Y-66239D02*
X82529Y-66210D01*
X82389Y-66210D01*
X82332Y-66239D01*
X82304Y-66267D01*
X82276Y-66323D01*
X82276Y-66379D01*
X82304Y-66435D01*
X82332Y-66464D01*
X82389Y-66492D01*
X82501Y-66520D01*
X82557Y-66548D01*
X82585Y-66576D01*
X82614Y-66632D01*
X82614Y-66689D01*
X82585Y-66745D01*
X82557Y-66773D01*
X82501Y-66801D01*
X82360Y-66801D01*
X82276Y-66773D01*
X82023Y-66210D02*
X82023Y-66801D01*
X81798Y-66801D01*
X81742Y-66773D01*
X81714Y-66745D01*
X81686Y-66689D01*
X81686Y-66604D01*
X81714Y-66548D01*
X81742Y-66520D01*
X81798Y-66492D01*
X82023Y-66492D01*
X81432Y-66210D02*
X81432Y-66801D01*
G54D12*
X84150Y-62950D02*
X84150Y-62900D01*
X84150Y-67100D02*
X84150Y-62950D01*
X73850Y-67100D02*
X84150Y-67100D01*
X73850Y-66950D02*
X73850Y-67100D01*
X73850Y-62900D02*
X73850Y-66950D01*
X84150Y-62900D02*
X73850Y-62900D01*
G54D11*
X74739Y-66231D02*
X74739Y-66568D01*
X74739Y-66399D02*
X74148Y-66399D01*
X74232Y-66456D01*
X74289Y-66512D01*
X74317Y-66568D01*
X76739Y-66231D02*
X76739Y-66568D01*
X76739Y-66399D02*
X76148Y-66399D01*
X76232Y-66456D01*
X76289Y-66512D01*
X76317Y-66568D01*
G54D13*
X74500Y-65500D03*
G54D14*
X74500Y-64500D03*
X75500Y-65500D03*
X75500Y-64500D03*
X76500Y-65500D03*
X76500Y-64500D03*
X77500Y-65500D03*
X77500Y-64500D03*
X78500Y-65500D03*
X78500Y-64500D03*
X79500Y-65500D03*
X79500Y-64500D03*
X80500Y-65500D03*
X80500Y-64500D03*
X81500Y-65500D03*
X81500Y-64500D03*
X82500Y-65500D03*
X82500Y-64500D03*
X83500Y-65500D03*
X83500Y-64500D03*
G54D15*
X77500Y-66500D03*
G54D16*
X78500Y-66500D03*
X79500Y-66500D03*
X80500Y-66500D03*
X80500Y-63500D03*
X79500Y-63500D03*
X78500Y-63500D03*
X77500Y-63500D03*
M02*
