M48
;DRILL file {Pcbnew (2013-07-07 BZR 4022)-stable} date 7/10/2015 1:06:01 PM
;FORMAT={-:-/ absolute / inch / decimal}
FMAT,2
INCH,TZ
T1C0.032
T2C0.040
%
G90
G05
M72
T1
X7.75Y-6.35
X7.75Y-6.65
X7.85Y-6.35
X7.85Y-6.65
X7.95Y-6.35
X7.95Y-6.65
X8.05Y-6.35
X8.05Y-6.65
T2
X7.45Y-6.45
X7.45Y-6.55
X7.55Y-6.45
X7.55Y-6.55
X7.65Y-6.45
X7.65Y-6.55
X7.75Y-6.45
X7.75Y-6.55
X7.85Y-6.45
X7.85Y-6.55
X7.95Y-6.45
X7.95Y-6.55
X8.05Y-6.45
X8.05Y-6.55
X8.15Y-6.45
X8.15Y-6.55
X8.25Y-6.45
X8.25Y-6.55
X8.35Y-6.45
X8.35Y-6.55
T0
M30
